<svg xmlns="http://www.w3.org/2000/svg" width="51.719" height="51.719" viewBox="0 0 51.719 51.719">
  <g id="Icon_ionic-ios-close-circle-outline" data-name="Icon ionic-ios-close-circle-outline" transform="translate(-3.375 -3.375)">
    <path id="Pfad_1" data-name="Pfad 1" d="M31.694,28.889l-6.552-6.552,6.552-6.552a1.987,1.987,0,1,0-2.81-2.81l-6.552,6.552-6.552-6.552a1.987,1.987,0,0,0-2.81,2.81l6.552,6.552-6.552,6.552a1.921,1.921,0,0,0,0,2.81,1.974,1.974,0,0,0,2.81,0l6.552-6.552L28.885,31.7a2,2,0,0,0,2.81,0A1.974,1.974,0,0,0,31.694,28.889Z" transform="translate(6.902 6.898)" fill="#cee9d4"/>
    <path id="Pfad_2" data-name="Pfad 2" d="M29.234,6.856a22.382,22.382,0,0,1,15.826,38.2A22.382,22.382,0,0,1,13.408,13.408,22.23,22.23,0,0,1,29.234,6.856m0-3.481A25.859,25.859,0,1,0,55.094,29.234,25.855,25.855,0,0,0,29.234,3.375Z" transform="translate(0 0)" fill="#cee9d4"/>
  </g>
</svg>
